<?xml version="1.0" encoding="UTF-8" standalone="no"?>
<!-- Created with Inkscape (http://www.inkscape.org/) -->

<svg
   xmlns:dc="http://purl.org/dc/elements/1.1/"
   xmlns:cc="http://creativecommons.org/ns#"
   xmlns:rdf="http://www.w3.org/1999/02/22-rdf-syntax-ns#"
   xmlns:svg="http://www.w3.org/2000/svg"
   xmlns="http://www.w3.org/2000/svg"
   xmlns:sodipodi="http://sodipodi.sourceforge.net/DTD/sodipodi-0.dtd"
   xmlns:inkscape="http://www.inkscape.org/namespaces/inkscape"
   width="300"
   height="240"
   viewBox="0 0 300 240"
   id="svg7999"
   version="1.1"
   inkscape:version="0.91 r13725"
   sodipodi:docname="flipflop.svg"
   inkscape:export-filename="C:\Users\Mich\hugo\synth\static\images\module\adsr-eg\large\flipflop.png"
   inkscape:export-xdpi="180.00002"
   inkscape:export-ydpi="180.00002">
  <defs
     id="defs8001" />
  <sodipodi:namedview
     id="base"
     pagecolor="#ffffff"
     bordercolor="#666666"
     borderopacity="1.0"
     inkscape:pageopacity="0.0"
     inkscape:pageshadow="2"
     inkscape:zoom="2"
     inkscape:cx="298.9592"
     inkscape:cy="151.29598"
     inkscape:document-units="mm"
     inkscape:current-layer="layer1"
     showgrid="false"
     inkscape:window-width="1920"
     inkscape:window-height="1027"
     inkscape:window-x="1912"
     inkscape:window-y="-8"
     inkscape:window-maximized="1" />
  <metadata
     id="metadata8004">
    <rdf:RDF>
      <cc:Work
         rdf:about="">
        <dc:format>image/svg+xml</dc:format>
        <dc:type
           rdf:resource="http://purl.org/dc/dcmitype/StillImage" />
        <dc:title></dc:title>
      </cc:Work>
    </rdf:RDF>
  </metadata>
  <g
     inkscape:label="Layer 1"
     inkscape:groupmode="layer"
     id="layer1">
    <path
       d="m 84.44382,94.787044 2.9081,-2.73712 2.56598,-2.90816 2.22385,-3.07925 2.05278,-3.42136 1.881716,-3.42138 1.36851,-3.59246 1.197484,-3.76351 0.8553,-3.93459 0.34214,-3.76351 0.17101,-3.93459 -0.17101,-3.93458 -0.68425,-3.93459 -0.85533,-3.76351 -1.197454,-3.76352 -1.53959,-3.59245 -1.881716,-3.42138 -2.05279,-3.25031 -2.39491,-3.07923 -2.73703,-2.90818 -2.05279,-1.88176"
       style="fill:none;fill-opacity:1;stroke:#000000;stroke-width:0.94714779;stroke-linecap:round;stroke-linejoin:round;stroke-miterlimit:10;stroke-dasharray:none;stroke-opacity:1"
       id="path2278"
       inkscape:connector-curvature="0" />
    <path
       d="m 135.59229,94.958114 4.78984,-0.17102 4.78983,-0.68428 4.78981,-1.19747 4.61877,-1.36856 4.4477,-1.88175 4.27661,-2.39497 4.10557,-2.56604 3.93451,-2.90816 3.59236,-3.4214 3.25024,-3.59242 2.90811,-3.76353 2.56596,-4.10566 2.22385,-4.44779 0.85533,-1.88175"
       style="fill:none;fill-opacity:1;stroke:#000000;stroke-width:0.94714779;stroke-linecap:round;stroke-linejoin:round;stroke-miterlimit:10;stroke-dasharray:none;stroke-opacity:1"
       id="path2280"
       inkscape:connector-curvature="0" />
    <path
       d="m 186.91185,60.744324 -1.88171,-4.44779 -2.39493,-4.10565 -2.73703,-3.9346 -3.07918,-3.76351 -3.25024,-3.25031 -3.59237,-3.25029 -3.93449,-2.7371 -4.10557,-2.39499 -4.27663,-2.05282 -4.61875,-1.71069 -4.61877,-1.19749 -4.61875,-0.85533 -4.78983,-0.51321 -3.25024,0"
       style="fill:none;fill-opacity:1;stroke:#000000;stroke-width:0.94714779;stroke-linecap:round;stroke-linejoin:round;stroke-miterlimit:10;stroke-dasharray:none;stroke-opacity:1"
       id="path2282"
       inkscape:connector-curvature="0" />
    <path
       d="m 84.27274,94.958114 51.31955,0"
       style="fill:none;fill-opacity:1;stroke:#000000;stroke-width:0.94714779;stroke-linecap:round;stroke-linejoin:round;stroke-miterlimit:10;stroke-dasharray:none;stroke-opacity:1"
       id="path2284"
       inkscape:connector-curvature="0" />
    <path
       d="m 84.27274,26.530544 51.31955,0"
       style="fill:none;fill-opacity:1;stroke:#000000;stroke-width:0.94714779;stroke-linecap:round;stroke-linejoin:round;stroke-miterlimit:10;stroke-dasharray:none;stroke-opacity:1"
       id="path2286"
       inkscape:connector-curvature="0" />
    <path
       d="m 96.110526,43.637414 -81.314286,0"
       style="fill:none;fill-opacity:1;stroke:#000000;stroke-width:0.94714779;stroke-linecap:round;stroke-linejoin:round;stroke-miterlimit:10;stroke-dasharray:none;stroke-opacity:1"
       id="path2288"
       inkscape:connector-curvature="0" />
    <path
       d="m 96.247316,77.851214 -63.294106,0"
       style="fill:none;fill-opacity:1;stroke:#000000;stroke-width:0.94714779;stroke-linecap:round;stroke-linejoin:round;stroke-miterlimit:10;stroke-dasharray:none;stroke-opacity:1"
       id="path2296"
       inkscape:connector-curvature="0" />
    <path
       d="m 186.91185,60.744324 c 0,-2.35904 1.91764,-4.27672 4.27663,-4.27672 2.35898,0 4.27662,1.91768 4.27662,4.27672 0,2.35905 -1.91764,4.27672 -4.27662,4.27672 -2.35899,0 -4.27663,-1.91767 -4.27663,-4.27672 z"
       style="fill:none;fill-opacity:1;stroke:#000000;stroke-width:0.94714779;stroke-linecap:round;stroke-linejoin:round;stroke-miterlimit:10;stroke-dasharray:none;stroke-opacity:1"
       id="path2302"
       inkscape:connector-curvature="0" />
    <path
       d="m 125.49945,48.085224 0,6.84276 0.34213,0.85534 0.5132,0.34215 0.68426,0.51319 1.71065,0 0.85533,-0.51319 0.34213,-0.34215 0.34213,-0.85534 0,-6.84276"
       style="fill:none;fill-opacity:1;stroke:#000000;stroke-width:0.94714779;stroke-linecap:round;stroke-linejoin:round;stroke-miterlimit:10;stroke-dasharray:none;stroke-opacity:1"
       id="path2312"
       inkscape:connector-curvature="0" />
    <path
       d="m 137.98723,50.822324 0,5.81634"
       style="fill:none;fill-opacity:1;stroke:#000000;stroke-width:0.94714779;stroke-linecap:round;stroke-linejoin:round;stroke-miterlimit:10;stroke-dasharray:none;stroke-opacity:1"
       id="path2314"
       inkscape:connector-curvature="0" />
    <path
       d="m 135.93444,47.572024 -1.88172,6.15848 5.13195,0"
       style="fill:none;fill-opacity:1;stroke:#000000;stroke-width:0.94714779;stroke-linecap:round;stroke-linejoin:round;stroke-miterlimit:10;stroke-dasharray:none;stroke-opacity:1"
       id="path2316"
       inkscape:connector-curvature="0" />
    <path
       d="m 142.26384,54.072634 3.93451,0"
       style="fill:none;fill-opacity:1;stroke:#000000;stroke-width:0.94714779;stroke-linecap:round;stroke-linejoin:round;stroke-miterlimit:10;stroke-dasharray:none;stroke-opacity:1"
       id="path2318"
       inkscape:connector-curvature="0" />
    <path
       d="m 141.40852,56.638664 2.73704,-8.55344 2.9081,8.55344"
       style="fill:none;fill-opacity:1;stroke:#000000;stroke-width:0.94714779;stroke-linecap:round;stroke-linejoin:round;stroke-miterlimit:10;stroke-dasharray:none;stroke-opacity:1"
       id="path2320"
       inkscape:connector-curvature="0" />
    <path
       d="m 124.81519,67.929214 0,5.81635"
       style="fill:none;fill-opacity:1;stroke:#000000;stroke-width:0.94714779;stroke-linecap:round;stroke-linejoin:round;stroke-miterlimit:10;stroke-dasharray:none;stroke-opacity:1"
       id="path2324"
       inkscape:connector-curvature="0" />
    <path
       d="m 122.76242,64.678904 -1.88173,6.15847 5.13196,0"
       style="fill:none;fill-opacity:1;stroke:#000000;stroke-width:0.94714779;stroke-linecap:round;stroke-linejoin:round;stroke-miterlimit:10;stroke-dasharray:none;stroke-opacity:1"
       id="path2326"
       inkscape:connector-curvature="0" />
    <path
       d="m 130.97355,65.192114 0.85532,0 0.85531,0.34215 0.34215,0.34213 0.5132,0.85534 0.34213,1.71069 0,2.05284 -0.34213,1.53961 -0.5132,0.85534 -0.34215,0.34215 -0.85531,0.5132 -0.85532,0 -0.68427,-0.5132 -0.51319,-0.34215 -0.34213,-0.85534 -0.34213,-1.53961 0,-2.05284 0.34213,-1.71069 0.34213,-0.85534 0.51319,-0.34213 0.68427,-0.34215"
       style="fill:none;fill-opacity:1;stroke:#000000;stroke-width:0.94714779;stroke-linecap:round;stroke-linejoin:round;stroke-miterlimit:10;stroke-dasharray:none;stroke-opacity:1"
       id="path2328"
       inkscape:connector-curvature="0" />
    <path
       d="m 139.18467,65.192114 0.85532,0 0.85533,0.34215 0.34213,0.34213 0.5132,0.85534 0.34213,1.71069 0,2.05284 -0.34213,1.53961 -0.5132,0.85534 -0.34213,0.34215 -0.85533,0.5132 -0.85532,0 -0.68425,-0.5132 -0.51319,-0.34215 -0.34215,-0.85534 -0.34213,-1.53961 0,-2.05284 0.34213,-1.71069 0.34215,-0.85534 0.51319,-0.34213 0.68425,-0.34215"
       style="fill:none;fill-opacity:1;stroke:#000000;stroke-width:0.94714779;stroke-linecap:round;stroke-linejoin:round;stroke-miterlimit:10;stroke-dasharray:none;stroke-opacity:1"
       id="path2330"
       inkscape:connector-curvature="0" />
    <path
       d="m 150.3039,73.745564 -4.78983,0"
       style="fill:none;fill-opacity:1;stroke:#000000;stroke-width:0.94714779;stroke-linecap:round;stroke-linejoin:round;stroke-miterlimit:10;stroke-dasharray:none;stroke-opacity:1"
       id="path2332"
       inkscape:connector-curvature="0" />
    <path
       d="m 147.90899,73.745564 0,-8.55345 -0.85533,1.19748 -0.85531,0.85536 -0.68428,0.34211"
       style="fill:none;fill-opacity:1;stroke:#000000;stroke-width:0.94714779;stroke-linecap:round;stroke-linejoin:round;stroke-miterlimit:10;stroke-dasharray:none;stroke-opacity:1"
       id="path2334"
       inkscape:connector-curvature="0" />
    <path
       d="m 84.44382,223.08873 2.9081,-2.73712 2.56598,-2.90818 2.22385,-3.07923 2.05278,-3.42136 1.881716,-3.4214 1.36851,-3.59244 1.197484,-3.76351 0.8553,-3.93459 0.34214,-3.76351 0.17101,-3.93459 -0.17101,-3.93458 -0.68425,-3.93459 -0.85533,-3.76351 -1.197454,-3.76353 -1.53959,-3.59244 -1.881716,-3.42138 -2.05279,-3.25031 -2.39491,-3.07923 -2.73703,-2.90818 -2.05279,-1.88176"
       style="fill:none;fill-opacity:1;stroke:#000000;stroke-width:0.94714779;stroke-linecap:round;stroke-linejoin:round;stroke-miterlimit:10;stroke-dasharray:none;stroke-opacity:1"
       id="path2336"
       inkscape:connector-curvature="0" />
    <path
       d="m 135.59229,223.25979 4.78984,-0.17101 4.78983,-0.6843 4.78981,-1.19747 4.61877,-1.36854 4.4477,-1.88177 4.27661,-2.39496 4.10557,-2.56605 3.93451,-2.90816 3.59236,-3.42138 3.25024,-3.59244 2.90811,-3.76353 2.56596,-4.10564 2.22385,-4.44779 0.85533,-1.88177"
       style="fill:none;fill-opacity:1;stroke:#000000;stroke-width:0.94714779;stroke-linecap:round;stroke-linejoin:round;stroke-miterlimit:10;stroke-dasharray:none;stroke-opacity:1"
       id="path2338"
       inkscape:connector-curvature="0" />
    <path
       d="m 186.91185,189.04601 -1.88171,-4.44779 -2.39493,-4.10566 -2.73703,-3.93459 -3.07918,-3.76351 -3.25024,-3.25031 -3.59237,-3.25031 -3.93449,-2.7371 -4.10557,-2.39497 -4.27663,-2.05282 -4.61875,-1.71069 -4.61877,-1.19749 -4.61875,-0.85535 -4.78983,-0.51319 -3.25024,0"
       style="fill:none;fill-opacity:1;stroke:#000000;stroke-width:0.94714779;stroke-linecap:round;stroke-linejoin:round;stroke-miterlimit:10;stroke-dasharray:none;stroke-opacity:1"
       id="path2340"
       inkscape:connector-curvature="0" />
    <path
       d="m 84.27274,223.25979 51.31955,0"
       style="fill:none;fill-opacity:1;stroke:#000000;stroke-width:0.94714779;stroke-linecap:round;stroke-linejoin:round;stroke-miterlimit:10;stroke-dasharray:none;stroke-opacity:1"
       id="path2342"
       inkscape:connector-curvature="0" />
    <path
       d="m 84.27274,154.83223 51.31955,0"
       style="fill:none;fill-opacity:1;stroke:#000000;stroke-width:0.94714779;stroke-linecap:round;stroke-linejoin:round;stroke-miterlimit:10;stroke-dasharray:none;stroke-opacity:1"
       id="path2344"
       inkscape:connector-curvature="0" />
    <path
       d="m 186.91185,189.04601 c 0,-2.35905 1.91764,-4.27672 4.27663,-4.27672 2.35898,0 4.27662,1.91767 4.27662,4.27672 0,2.35905 -1.91764,4.27672 -4.27662,4.27672 -2.35899,0 -4.27663,-1.91767 -4.27663,-4.27672 z"
       style="fill:none;fill-opacity:1;stroke:#000000;stroke-width:0.94714779;stroke-linecap:round;stroke-linejoin:round;stroke-miterlimit:10;stroke-dasharray:none;stroke-opacity:1"
       id="path2346"
       inkscape:connector-curvature="0" />
    <path
       d="m 195.88569,189.04597 87.94986,0"
       style="fill:none;fill-opacity:1;stroke:#000000;stroke-width:0.94714779;stroke-linecap:round;stroke-linejoin:round;stroke-miterlimit:10;stroke-dasharray:none;stroke-opacity:1"
       id="path2348"
       inkscape:connector-curvature="0" />
    <path
       d="m 96.247316,171.93912 -63.294106,0"
       style="fill:none;fill-opacity:1;stroke:#000000;stroke-width:0.94714779;stroke-linecap:round;stroke-linejoin:round;stroke-miterlimit:10;stroke-dasharray:none;stroke-opacity:1"
       id="path2356"
       inkscape:connector-curvature="0" />
    <path
       d="m 124.81519,176.38691 0,6.84275 0.34213,0.85535 0.5132,0.34213 0.68426,0.51321 1.71065,0 0.85533,-0.51321 0.34213,-0.34213 0.34213,-0.85535 0,-6.84275"
       style="fill:none;fill-opacity:1;stroke:#000000;stroke-width:0.94714779;stroke-linecap:round;stroke-linejoin:round;stroke-miterlimit:10;stroke-dasharray:none;stroke-opacity:1"
       id="path2370"
       inkscape:connector-curvature="0" />
    <path
       d="m 137.30295,179.12401 0,5.81634"
       style="fill:none;fill-opacity:1;stroke:#000000;stroke-width:0.94714779;stroke-linecap:round;stroke-linejoin:round;stroke-miterlimit:10;stroke-dasharray:none;stroke-opacity:1"
       id="path2372"
       inkscape:connector-curvature="0" />
    <path
       d="m 135.25016,175.87371 -1.8817,6.15848 5.13196,0"
       style="fill:none;fill-opacity:1;stroke:#000000;stroke-width:0.94714779;stroke-linecap:round;stroke-linejoin:round;stroke-miterlimit:10;stroke-dasharray:none;stroke-opacity:1"
       id="path2374"
       inkscape:connector-curvature="0" />
    <path
       d="m 144.82983,180.3215 1.19744,0.51319 0.34213,0.34214 0.34215,0.85536 0,1.19747 -0.34215,0.85535 -0.34213,0.34213 -0.85531,0.51321 -3.25025,0 0,-8.55344 2.90812,0 0.68424,0.34213 0.5132,0.34215 0.34213,0.85534 0,0.85534 -0.34213,0.85535 -0.5132,0.34213 -0.68424,0.34215 -2.90812,0"
       style="fill:none;fill-opacity:1;stroke:#000000;stroke-width:0.94714779;stroke-linecap:round;stroke-linejoin:round;stroke-miterlimit:10;stroke-dasharray:none;stroke-opacity:1"
       id="path2376"
       inkscape:connector-curvature="0" />
    <path
       d="m 124.81519,196.2309 0,5.81633"
       style="fill:none;fill-opacity:1;stroke:#000000;stroke-width:0.94714779;stroke-linecap:round;stroke-linejoin:round;stroke-miterlimit:10;stroke-dasharray:none;stroke-opacity:1"
       id="path2380"
       inkscape:connector-curvature="0" />
    <path
       d="m 122.76242,192.98058 -1.88173,6.15848 5.13196,0"
       style="fill:none;fill-opacity:1;stroke:#000000;stroke-width:0.94714779;stroke-linecap:round;stroke-linejoin:round;stroke-miterlimit:10;stroke-dasharray:none;stroke-opacity:1"
       id="path2382"
       inkscape:connector-curvature="0" />
    <path
       d="m 130.97355,193.4938 0.85532,0 0.85531,0.34213 0.34215,0.34215 0.5132,0.85534 0.34213,1.71069 0,2.05282 -0.34213,1.53962 -0.5132,0.85535 -0.34215,0.34213 -0.85531,0.5132 -0.85532,0 -0.68427,-0.5132 -0.51319,-0.34213 -0.34213,-0.85535 -0.34213,-1.53962 0,-2.05282 0.34213,-1.71069 0.34213,-0.85534 0.51319,-0.34215 0.68427,-0.34213"
       style="fill:none;fill-opacity:1;stroke:#000000;stroke-width:0.94714779;stroke-linecap:round;stroke-linejoin:round;stroke-miterlimit:10;stroke-dasharray:none;stroke-opacity:1"
       id="path2384"
       inkscape:connector-curvature="0" />
    <path
       d="m 139.18467,193.4938 0.85532,0 0.85533,0.34213 0.34213,0.34215 0.5132,0.85534 0.34213,1.71069 0,2.05282 -0.34213,1.53962 -0.5132,0.85535 -0.34213,0.34213 -0.85533,0.5132 -0.85532,0 -0.68425,-0.5132 -0.51319,-0.34213 -0.34215,-0.85535 -0.34213,-1.53962 0,-2.05282 0.34213,-1.71069 0.34215,-0.85534 0.51319,-0.34215 0.68425,-0.34213"
       style="fill:none;fill-opacity:1;stroke:#000000;stroke-width:0.94714779;stroke-linecap:round;stroke-linejoin:round;stroke-miterlimit:10;stroke-dasharray:none;stroke-opacity:1"
       id="path2386"
       inkscape:connector-curvature="0" />
    <path
       d="m 150.3039,202.04723 -4.78983,0"
       style="fill:none;fill-opacity:1;stroke:#000000;stroke-width:0.94714779;stroke-linecap:round;stroke-linejoin:round;stroke-miterlimit:10;stroke-dasharray:none;stroke-opacity:1"
       id="path2388"
       inkscape:connector-curvature="0" />
    <path
       d="m 147.90899,202.04723 0,-8.55343 -0.85533,1.19747 -0.85531,0.85537 -0.68428,0.34211"
       style="fill:none;fill-opacity:1;stroke:#000000;stroke-width:0.94714779;stroke-linecap:round;stroke-linejoin:round;stroke-miterlimit:10;stroke-dasharray:none;stroke-opacity:1"
       id="path2390"
       inkscape:connector-curvature="0" />
    <path
       d="m 14.84336,206.15297 81.217756,0"
       style="fill:none;fill-opacity:1;stroke:#000000;stroke-width:0.94714779;stroke-linecap:round;stroke-linejoin:round;stroke-miterlimit:10;stroke-dasharray:none;stroke-opacity:1"
       id="path8754"
       inkscape:connector-curvature="0" />
    <path
       d="m 243.36335,189.04601 c 0,-1.8886 1.5328,-3.42138 3.4213,-3.42138 1.8886,0 3.4213,1.53278 3.4213,3.42138 0,1.88859 -1.5327,3.42138 -3.4213,3.42138 -1.8885,0 -3.4213,-1.53279 -3.4213,-3.42138 z"
       style="fill:#000000;fill-opacity:1;fill-rule:nonzero;stroke:#000000;stroke-width:1.57857978;stroke-linecap:round;stroke-linejoin:round;stroke-miterlimit:10;stroke-dasharray:none;stroke-opacity:1"
       id="path8812"
       inkscape:connector-curvature="0" />
    <path
       d="m 243.36335,60.744324 c 0,-1.88859 1.5328,-3.42138 3.4213,-3.42138 1.8886,0 3.4213,1.53279 3.4213,3.42138 0,1.8886 -1.5327,3.42138 -3.4213,3.42138 -1.8885,0 -3.4213,-1.53278 -3.4213,-3.42138 z"
       style="fill:#000000;fill-opacity:1;fill-rule:nonzero;stroke:#000000;stroke-width:1.57857978;stroke-linecap:round;stroke-linejoin:round;stroke-miterlimit:10;stroke-dasharray:none;stroke-opacity:1"
       id="path8814"
       inkscape:connector-curvature="0" />
    <path
       d="m 246.78465,146.44069 0,42.5922"
       style="fill:none;fill-opacity:1;stroke:#000000;stroke-width:0.94714779;stroke-linecap:round;stroke-linejoin:round;stroke-miterlimit:10;stroke-dasharray:none;stroke-opacity:1"
       id="path8822"
       inkscape:connector-curvature="0" />
    <path
       d="m 101.37926,146.27878 85.53259,-42.76723"
       style="fill:none;fill-opacity:1;stroke:#000000;stroke-width:0.94714779;stroke-linecap:round;stroke-linejoin:round;stroke-miterlimit:10;stroke-dasharray:none;stroke-opacity:1"
       id="path8824"
       inkscape:connector-curvature="0" />
    <path
       d="m 101.37926,103.51155 85.53259,42.76723"
       style="fill:none;fill-opacity:1;stroke:#000000;stroke-width:0.94714779;stroke-linecap:round;stroke-linejoin:round;stroke-miterlimit:10;stroke-dasharray:none;stroke-opacity:1"
       id="path8826"
       inkscape:connector-curvature="0" />
    <path
       d="m 24.39994,146.27878 76.97932,0"
       style="fill:none;fill-opacity:1;stroke:#000000;stroke-width:0.94714779;stroke-linecap:round;stroke-linejoin:round;stroke-miterlimit:10;stroke-dasharray:none;stroke-opacity:1"
       id="path8828"
       inkscape:connector-curvature="0" />
    <path
       d="m 24.39994,171.93912 0,-25.66034"
       style="fill:none;fill-opacity:1;stroke:#000000;stroke-width:0.94714779;stroke-linecap:round;stroke-linejoin:round;stroke-miterlimit:10;stroke-dasharray:none;stroke-opacity:1"
       id="path8830"
       inkscape:connector-curvature="0" />
    <path
       d="m 32.95321,171.93912 -8.55327,0"
       style="fill:none;fill-opacity:1;stroke:#000000;stroke-width:0.94714779;stroke-linecap:round;stroke-linejoin:round;stroke-miterlimit:10;stroke-dasharray:none;stroke-opacity:1"
       id="path8832"
       inkscape:connector-curvature="0" />
    <path
       d="m 24.39994,103.51155 76.97932,0"
       style="fill:none;fill-opacity:1;stroke:#000000;stroke-width:0.94714779;stroke-linecap:round;stroke-linejoin:round;stroke-miterlimit:10;stroke-dasharray:none;stroke-opacity:1"
       id="path8834"
       inkscape:connector-curvature="0" />
    <path
       d="m 24.39994,77.851214 0,25.660336"
       style="fill:none;fill-opacity:1;stroke:#000000;stroke-width:0.94714779;stroke-linecap:round;stroke-linejoin:round;stroke-miterlimit:10;stroke-dasharray:none;stroke-opacity:1"
       id="path8836"
       inkscape:connector-curvature="0" />
    <path
       d="m 32.95321,77.851214 -8.55327,0"
       style="fill:none;fill-opacity:1;stroke:#000000;stroke-width:0.94714779;stroke-linecap:round;stroke-linejoin:round;stroke-miterlimit:10;stroke-dasharray:none;stroke-opacity:1"
       id="path8838"
       inkscape:connector-curvature="0" />
    <path
       d="m 186.80512,146.27876 59.95513,0"
       style="fill:none;fill-opacity:1;stroke:#000000;stroke-width:0.94714779;stroke-linecap:round;stroke-linejoin:round;stroke-miterlimit:10;stroke-dasharray:none;stroke-opacity:1"
       id="path8840"
       inkscape:connector-curvature="0" />
    <path
       d="m 186.91185,103.51155 59.8728,0"
       style="fill:none;fill-opacity:1;stroke:#000000;stroke-width:0.94714779;stroke-linecap:round;stroke-linejoin:round;stroke-miterlimit:10;stroke-dasharray:none;stroke-opacity:1"
       id="path8844"
       inkscape:connector-curvature="0" />
    <path
       d="m 246.78465,103.51155 0,-42.767226"
       style="fill:none;fill-opacity:1;stroke:#000000;stroke-width:0.94714779;stroke-linecap:round;stroke-linejoin:round;stroke-miterlimit:10;stroke-dasharray:none;stroke-opacity:1"
       id="path8846"
       inkscape:connector-curvature="0" />
    <path
       inkscape:connector-curvature="0"
       id="path14271"
       style="fill:none;fill-opacity:1;stroke:#000000;stroke-width:0.94714779;stroke-linecap:round;stroke-linejoin:round;stroke-miterlimit:10;stroke-dasharray:none;stroke-opacity:1"
       d="m 195.88569,60.744324 87.94986,0" />
    <flowRoot
       transform="matrix(1.7539773,0,0,1.7539773,-1068.5415,-820.40443)"
       style="font-style:normal;font-weight:normal;font-size:12.5px;line-height:125%;font-family:sans-serif;letter-spacing:0px;word-spacing:0px;fill:#000000;fill-opacity:1;stroke:none;stroke-width:1px;stroke-linecap:butt;stroke-linejoin:miter;stroke-opacity:1;"
       id="flowRoot14281"
       xml:space="preserve"><flowRegion
         id="flowRegion14283"><rect
           style="font-size:12.5px;fill:#000000;fill-opacity:1;"
           y="556.86218"
           x="761.5"
           height="30.5"
           width="27.25"
           id="rect14285" /></flowRegion><flowPara
         style="font-style:normal;font-variant:normal;font-weight:600;font-stretch:normal;font-size:12.5px;font-family:'Segoe UI';-inkscape-font-specification:'Segoe UI Semi-Bold';fill:#000000;fill-opacity:1;"
         id="flowPara14287">Q</flowPara></flowRoot>    <g
       id="g14307"
       transform="matrix(1.7539773,0,0,1.7539773,-1372.4181,-981.33185)"
       style="fill:#000000;fill-opacity:1">
      <path
         d="m 943.04683,576.36859 -7.76651,0"
         style="fill:#000000;fill-opacity:1;stroke:#000000;stroke-width:0.54000002;stroke-linecap:round;stroke-linejoin:round;stroke-miterlimit:10;stroke-dasharray:none;stroke-opacity:1"
         id="path14289"
         inkscape:connector-curvature="0" />
      <flowRoot
         xml:space="preserve"
         id="flowRoot14291"
         style="font-style:normal;font-weight:normal;font-size:12.5px;line-height:125%;font-family:sans-serif;letter-spacing:0px;word-spacing:0px;fill:#000000;fill-opacity:1;stroke:none;stroke-width:1px;stroke-linecap:butt;stroke-linejoin:miter;stroke-opacity:1"
         transform="translate(173.25,17.75)"><flowRegion
           id="flowRegion14293"><rect
             id="rect14295"
             width="27.25"
             height="30.5"
             x="761.5"
             y="556.86218"
             style="font-size:12.5px;fill:#000000;fill-opacity:1" /></flowRegion><flowPara
           id="flowPara14297"
           style="font-style:normal;font-variant:normal;font-weight:600;font-stretch:normal;font-size:12.5px;font-family:'Segoe UI';-inkscape-font-specification:'Segoe UI Semi-Bold';fill:#000000;fill-opacity:1">Q</flowPara></flowRoot>    </g>
    <flowRoot
       xml:space="preserve"
       id="flowRoot14299"
       style="font-style:normal;font-weight:normal;font-size:12.5px;line-height:125%;font-family:sans-serif;letter-spacing:0px;word-spacing:0px;fill:#000000;fill-opacity:1;stroke:none;stroke-width:1px;stroke-linecap:butt;stroke-linejoin:miter;stroke-opacity:1;"
       transform="matrix(1.7539773,0,0,1.7539773,-1322.5155,-960.72261)"><flowRegion
         id="flowRegion14301"><rect
           id="rect14303"
           width="27.25"
           height="30.5"
           x="761.5"
           y="556.86218"
           style="font-size:12.5px;fill:#000000;fill-opacity:1;" /></flowRegion><flowPara
         id="flowPara14305"
         style="font-style:normal;font-variant:normal;font-weight:600;font-stretch:normal;font-size:12.5px;font-family:'Segoe UI';-inkscape-font-specification:'Segoe UI Semi-Bold';fill:#000000;fill-opacity:1;">SET</flowPara></flowRoot>    <flowRoot
       transform="matrix(1.7539773,0,0,1.7539773,-1323.1856,-799.3567)"
       style="font-style:normal;font-weight:normal;font-size:12.5px;line-height:125%;font-family:sans-serif;letter-spacing:0px;word-spacing:0px;fill:#000000;fill-opacity:1;stroke:none;stroke-width:1px;stroke-linecap:butt;stroke-linejoin:miter;stroke-opacity:1;"
       id="flowRoot14314"
       xml:space="preserve"><flowRegion
         id="flowRegion14316"><rect
           style="font-size:12.5px;fill:#000000;fill-opacity:1;"
           y="556.86218"
           x="761.5"
           height="29.085787"
           width="46.165108"
           id="rect14318" /></flowRegion><flowPara
         style="font-style:normal;font-variant:normal;font-weight:600;font-stretch:normal;font-size:12.5px;font-family:'Segoe UI';-inkscape-font-specification:'Segoe UI Semi-Bold';fill:#000000;fill-opacity:1;"
         id="flowPara14320">RESET</flowPara></flowRoot>  </g>
</svg>
