<?xml version="1.0" encoding="UTF-8" standalone="no"?>
<!-- Created with Inkscape (http://www.inkscape.org/) -->

<svg
   xmlns:dc="http://purl.org/dc/elements/1.1/"
   xmlns:cc="http://creativecommons.org/ns#"
   xmlns:rdf="http://www.w3.org/1999/02/22-rdf-syntax-ns#"
   xmlns:svg="http://www.w3.org/2000/svg"
   xmlns="http://www.w3.org/2000/svg"
   xmlns:sodipodi="http://sodipodi.sourceforge.net/DTD/sodipodi-0.dtd"
   xmlns:inkscape="http://www.inkscape.org/namespaces/inkscape"
   width="300"
   height="135"
   viewBox="0 0 300 135"
   id="svg7999"
   version="1.1"
   inkscape:version="0.91 r13725"
   sodipodi:docname="time-range-switching.svg"
   inkscape:export-filename="C:\Users\Mich\hugo\synth\static\images\module\adsr-eg\large\time-range-switching.png"
   inkscape:export-xdpi="180"
   inkscape:export-ydpi="180">
  <defs
     id="defs8001">
    <marker
       inkscape:stockid="DiamondLstart"
       orient="auto"
       refY="0"
       refX="0"
       id="DiamondLstart"
       style="overflow:visible"
       inkscape:isstock="true">
      <path
         id="path9092"
         d="M 0,-7.0710768 -7.0710894,0 0,7.0710589 7.0710462,0 0,-7.0710768 Z"
         style="fill-rule:evenodd;stroke:#000000;stroke-width:1pt"
         transform="matrix(0.8,0,0,0.8,5.6,0)"
         inkscape:connector-curvature="0" />
    </marker>
    <marker
       inkscape:stockid="DiamondSend"
       orient="auto"
       refY="0"
       refX="0"
       id="DiamondSend"
       style="overflow:visible"
       inkscape:isstock="true">
      <path
         id="path9107"
         d="M 0,-7.0710768 -7.0710894,0 0,7.0710589 7.0710462,0 0,-7.0710768 Z"
         style="fill-rule:evenodd;stroke:#000000;stroke-width:1pt"
         transform="matrix(0.2,0,0,0.2,-1.2,0)"
         inkscape:connector-curvature="0" />
    </marker>
  </defs>
  <sodipodi:namedview
     id="base"
     pagecolor="#ffffff"
     bordercolor="#666666"
     borderopacity="1.0"
     inkscape:pageopacity="0.0"
     inkscape:pageshadow="2"
     inkscape:zoom="2.8"
     inkscape:cx="239.87684"
     inkscape:cy="15.652118"
     inkscape:document-units="mm"
     inkscape:current-layer="layer1"
     showgrid="false"
     inkscape:window-width="1920"
     inkscape:window-height="1027"
     inkscape:window-x="1912"
     inkscape:window-y="-8"
     inkscape:window-maximized="1" />
  <metadata
     id="metadata8004">
    <rdf:RDF>
      <cc:Work
         rdf:about="">
        <dc:format>image/svg+xml</dc:format>
        <dc:type
           rdf:resource="http://purl.org/dc/dcmitype/StillImage" />
        <dc:title></dc:title>
      </cc:Work>
    </rdf:RDF>
  </metadata>
  <g
     inkscape:label="Layer 1"
     inkscape:groupmode="layer"
     id="layer1">
    <rect
       style="opacity:1;fill:#ffffff;fill-opacity:1;stroke:none;stroke-width:0.53858268;stroke-linecap:butt;stroke-linejoin:round;stroke-miterlimit:10;stroke-dasharray:none;stroke-dashoffset:0;stroke-opacity:1"
       id="rect9383"
       width="300"
       height="135"
       x="0"
       y="1.2323476e-014" />
    <g
       id="g9282"
       transform="translate(-0.63438338,-30.675503)">
      <path
         inkscape:connector-curvature="0"
         id="path4946"
         style="fill:none;fill-opacity:1;stroke:#000000;stroke-width:0.83233231;stroke-linecap:round;stroke-linejoin:round;stroke-miterlimit:10;stroke-dasharray:none;stroke-opacity:1"
         d="m 16.056474,49.002472 7.516392,0" />
      <path
         inkscape:connector-curvature="0"
         id="path5174"
         style="fill:none;fill-opacity:1;stroke:#000000;stroke-width:0.83233231;stroke-linecap:round;stroke-linejoin:round;stroke-miterlimit:10;stroke-dasharray:none;stroke-opacity:1"
         d="m 20.566316,65.538912 6.01312,0" />
      <path
         inkscape:connector-curvature="0"
         id="path5176"
         style="fill:none;fill-opacity:1;stroke:#000000;stroke-width:0.83233231;stroke-linecap:round;stroke-linejoin:round;stroke-miterlimit:10;stroke-dasharray:none;stroke-opacity:1"
         d="m 23.572866,68.545642 0,-6.0133" />
      <path
         inkscape:connector-curvature="0"
         id="path5178"
         style="fill:none;fill-opacity:1;stroke:#000000;stroke-width:0.83233231;stroke-linecap:round;stroke-linejoin:round;stroke-miterlimit:10;stroke-dasharray:none;stroke-opacity:1"
         d="m 31.089286,73.055492 0,-16.53644" />
      <path
         inkscape:connector-curvature="0"
         id="path5180"
         style="fill:none;fill-opacity:1;stroke:#000000;stroke-width:0.83233231;stroke-linecap:round;stroke-linejoin:round;stroke-miterlimit:10;stroke-dasharray:none;stroke-opacity:1"
         d="m 31.089286,83.898012 0,17.762268" />
      <path
         inkscape:connector-curvature="0"
         id="path5184"
         style="fill:none;fill-opacity:1;stroke:#000000;stroke-width:0.83233231;stroke-linecap:round;stroke-linejoin:round;stroke-miterlimit:10;stroke-dasharray:none;stroke-opacity:1"
         d="m 40.860626,67.192632 -0.30066,0.30072 -1.0523,0.45085 -0.75164,0 -1.05228,-0.45085 -0.75166,-0.75172 -0.30064,-0.60128 -0.30066,-1.50344 0,-1.05228 0.30066,-1.353 0.30064,-0.75157 0.75166,-0.75172 1.05228,-0.30072 0.75164,0 1.0523,0.30072 0.30066,0.30072" />
      <path
         inkscape:connector-curvature="0"
         id="path5186"
         style="fill:none;fill-opacity:1;stroke:#000000;stroke-width:0.83233231;stroke-linecap:round;stroke-linejoin:round;stroke-miterlimit:10;stroke-dasharray:none;stroke-opacity:1"
         d="m 47.324736,60.427622 -1.35296,0 -0.75163,0.30072 -0.30065,0.30072 -0.75165,1.20257 -0.30065,1.353 0,2.85628 0.30065,0.75172 0.30066,0.30072 0.75164,0.45085 1.50329,0 0.6013,-0.45085 0.45098,-0.30072 0.30067,-0.75172 0,-1.804 -0.30067,-0.75156 -0.45098,-0.30072 -0.6013,-0.30057 -1.50329,0 -0.75164,0.30057 -0.30066,0.30072 -0.30065,0.75156" />
      <path
         inkscape:connector-curvature="0"
         id="path5190"
         style="fill:none;fill-opacity:1;stroke:#000000;stroke-width:0.83233231;stroke-linecap:round;stroke-linejoin:round;stroke-miterlimit:10;stroke-dasharray:none;stroke-opacity:1"
         d="m 35.899796,90.493932 4.66017,0 -2.55557,2.85644 1.20261,0 0.60133,0.30057 0.45099,0.30071 0.30064,0.75157 0,1.804 -0.30064,0.75172 -0.45099,0.30057 -0.60133,0.451 -2.25492,0 -0.6013,-0.451 -0.45099,-0.30057" />
      <path
         inkscape:connector-curvature="0"
         id="path5192"
         style="fill:none;fill-opacity:1;stroke:#000000;stroke-width:0.83233231;stroke-linecap:round;stroke-linejoin:round;stroke-miterlimit:10;stroke-dasharray:none;stroke-opacity:1"
         d="m 43.867196,97.258942 0.30065,0.30057 -0.30065,0.451 -0.30066,-0.451 0.30066,-0.30057 0,0.75157" />
      <path
         inkscape:connector-curvature="0"
         id="path5194"
         style="fill:none;fill-opacity:1;stroke:#000000;stroke-width:0.83233231;stroke-linecap:round;stroke-linejoin:round;stroke-miterlimit:10;stroke-dasharray:none;stroke-opacity:1"
         d="m 46.723436,90.493932 4.66016,0 -2.55556,2.85644 1.20261,0 0.60133,0.30057 0.45098,0.30071 0.30064,0.75157 0,1.804 -0.30064,0.75172 -0.45098,0.30057 -0.60133,0.451 -2.25493,0 -0.6013,-0.451 -0.45098,-0.30057" />
      <path
         inkscape:connector-curvature="0"
         id="path5196"
         style="fill:none;fill-opacity:1;stroke:#000000;stroke-width:0.83233231;stroke-linecap:round;stroke-linejoin:round;stroke-miterlimit:10;stroke-dasharray:none;stroke-opacity:1"
         d="m 57.847726,92.899372 0,5.11114" />
      <path
         inkscape:connector-curvature="0"
         id="path5198"
         style="fill:none;fill-opacity:1;stroke:#000000;stroke-width:0.83233231;stroke-linecap:round;stroke-linejoin:round;stroke-miterlimit:10;stroke-dasharray:none;stroke-opacity:1"
         d="m 54.690826,92.899372 0,3.90857 0.30064,0.75157 0.75166,0.451 1.05228,0 0.75166,-0.451 0.30066,-0.30057" />
      <path
         inkscape:connector-curvature="0"
         id="path5200"
         style="fill:none;fill-opacity:1;stroke:#000000;stroke-width:0.83233231;stroke-linecap:round;stroke-linejoin:round;stroke-miterlimit:10;stroke-dasharray:none;stroke-opacity:1"
         d="m 31.089286,109.13509 0,7.51658 7.51641,0 -7.51641,7.51659 -7.51642,-7.51659 7.51642,0" />
      <path
         inkscape:connector-curvature="0"
         id="path5204"
         style="fill:none;fill-opacity:1;stroke:#000000;stroke-width:0.83233231;stroke-linecap:round;stroke-linejoin:round;stroke-miterlimit:10;stroke-dasharray:none;stroke-opacity:1"
         d="m 25.376806,128.37755 -0.75163,-0.30072 -1.05231,0 -1.05228,0.30072 -0.75165,0.75172 -0.30065,0.75156 -0.30066,1.35301 0,1.05227 0.30066,1.5034 0.30065,0.6013 0.75165,0.7516 1.05228,0.451 0.75166,0 1.05228,-0.451 0.30067,-0.3006 0,-2.5557 -1.35295,0" />
      <path
         inkscape:connector-curvature="0"
         id="path5206"
         style="fill:none;fill-opacity:1;stroke:#000000;stroke-width:0.83233231;stroke-linecap:round;stroke-linejoin:round;stroke-miterlimit:10;stroke-dasharray:none;stroke-opacity:1"
         d="m 28.984686,135.59341 0,-7.51658 4.2092,7.51658 0,-7.51658" />
      <path
         inkscape:connector-curvature="0"
         id="path5208"
         style="fill:none;fill-opacity:1;stroke:#000000;stroke-width:0.83233231;stroke-linecap:round;stroke-linejoin:round;stroke-miterlimit:10;stroke-dasharray:none;stroke-opacity:1"
         d="m 36.801766,135.59341 0,-7.51658 1.80393,0 1.0523,0.30072 0.75164,0.75172 0.30067,0.75156 0.30065,1.35301 0,1.05227 -0.30065,1.5034 -0.30067,0.6013 -0.75164,0.7516 -1.0523,0.451 -1.80393,0" />
      <path
         inkscape:connector-curvature="0"
         id="path5214"
         style="fill:none;fill-opacity:1;stroke:#000000;stroke-width:0.83233231;stroke-linecap:round;stroke-linejoin:round;stroke-miterlimit:10;stroke-dasharray:none;stroke-opacity:1"
         d="m 88.214006,65.538912 6.01314,0" />
      <path
         inkscape:connector-curvature="0"
         id="path5216"
         style="fill:none;fill-opacity:1;stroke:#000000;stroke-width:0.83233231;stroke-linecap:round;stroke-linejoin:round;stroke-miterlimit:10;stroke-dasharray:none;stroke-opacity:1"
         d="m 91.220576,68.545642 0,-6.0133" />
      <path
         inkscape:connector-curvature="0"
         id="path5218"
         style="fill:none;fill-opacity:1;stroke:#000000;stroke-width:0.83233231;stroke-linecap:round;stroke-linejoin:round;stroke-miterlimit:10;stroke-dasharray:none;stroke-opacity:1"
         d="m 98.737006,73.055492 0,-16.53644" />
      <path
         inkscape:connector-curvature="0"
         id="path5220"
         style="fill:none;fill-opacity:1;stroke:#000000;stroke-width:0.83233219;stroke-linecap:round;stroke-linejoin:round;stroke-miterlimit:10;stroke-dasharray:none;stroke-opacity:1"
         d="m 98.737006,84.353632 0,17.316978" />
      <path
         inkscape:connector-curvature="0"
         id="path5224"
         style="fill:none;fill-opacity:1;stroke:#000000;stroke-width:0.83233231;stroke-linecap:round;stroke-linejoin:round;stroke-miterlimit:10;stroke-dasharray:none;stroke-opacity:1"
         d="m 108.50834,67.192632 -0.30066,0.30072 -1.0523,0.45085 -0.75164,0 -1.05228,-0.45085 -0.75166,-0.75172 -0.30066,-0.60128 -0.30064,-1.50344 0,-1.05228 0.30064,-1.353 0.30066,-0.75157 0.75166,-0.75172 1.05228,-0.30072 0.75164,0 1.0523,0.30072 0.30066,0.30072" />
      <path
         inkscape:connector-curvature="0"
         id="path5226"
         style="fill:none;fill-opacity:1;stroke:#000000;stroke-width:0.83233231;stroke-linecap:round;stroke-linejoin:round;stroke-miterlimit:10;stroke-dasharray:none;stroke-opacity:1"
         d="m 112.11622,67.944202 1.50327,0 0.75166,-0.45085 0.30064,-0.30072 0.75164,-1.05228 0.30066,-1.50344 0,-2.85629 -0.30066,-0.75156 -0.45098,-0.30072 -0.6013,-0.30072 -1.5033,0 -0.75163,0.30072 -0.30065,0.30072 -0.30068,0.75156 0,1.80401 0.30068,0.75172 0.30065,0.30056 0.75163,0.451 1.5033,0 0.6013,-0.451 0.45098,-0.30056 0.30066,-0.75172" />
      <path
         inkscape:connector-curvature="0"
         id="path5230"
         style="fill:none;fill-opacity:1;stroke:#000000;stroke-width:0.83233231;stroke-linecap:round;stroke-linejoin:round;stroke-miterlimit:10;stroke-dasharray:none;stroke-opacity:1"
         d="m 108.20768,98.010512 -4.20918,0" />
      <path
         inkscape:connector-curvature="0"
         id="path5232"
         style="fill:none;fill-opacity:1;stroke:#000000;stroke-width:0.83233231;stroke-linecap:round;stroke-linejoin:round;stroke-miterlimit:10;stroke-dasharray:none;stroke-opacity:1"
         d="m 106.10309,98.010512 0,-7.51658 -0.75163,1.05244 -0.75166,0.75156 -0.6013,0.30072" />
      <path
         inkscape:connector-curvature="0"
         id="path5234"
         style="fill:none;fill-opacity:1;stroke:#000000;stroke-width:0.83233231;stroke-linecap:round;stroke-linejoin:round;stroke-miterlimit:10;stroke-dasharray:none;stroke-opacity:1"
         d="m 112.86785,90.493932 0.75164,0 0.75166,0.30072 0.30064,0.30072 0.45099,0.75156 0.30065,1.50344 0,1.80385 -0.30065,1.353 -0.45099,0.75172 -0.30064,0.30057 -0.75166,0.451 -0.75164,0 -0.60131,-0.451 -0.45097,-0.30057 -0.30068,-0.75172 -0.30064,-1.353 0,-1.80385 0.30064,-1.50344 0.30068,-0.75156 0.45097,-0.30072 0.60131,-0.30072" />
      <path
         inkscape:connector-curvature="0"
         id="path5236"
         style="fill:none;fill-opacity:1;stroke:#000000;stroke-width:0.83233231;stroke-linecap:round;stroke-linejoin:round;stroke-miterlimit:10;stroke-dasharray:none;stroke-opacity:1"
         d="m 120.0836,90.493932 0.75166,0 0.75164,0.30072 0.30064,0.30072 0.45099,0.75156 0.30066,1.50344 0,1.80385 -0.30066,1.353 -0.45099,0.75172 -0.30064,0.30057 -0.75164,0.451 -0.75166,0 -0.6013,-0.451 -0.45098,-0.30057 -0.30067,-0.75172 -0.30065,-1.353 0,-1.80385 0.30065,-1.50344 0.30067,-0.75156 0.45098,-0.30072 0.6013,-0.30072" />
      <path
         inkscape:connector-curvature="0"
         id="path5238"
         style="fill:none;fill-opacity:1;stroke:#000000;stroke-width:0.83233231;stroke-linecap:round;stroke-linejoin:round;stroke-miterlimit:10;stroke-dasharray:none;stroke-opacity:1"
         d="m 129.10331,92.899372 0,5.11114" />
      <path
         inkscape:connector-curvature="0"
         id="path5240"
         style="fill:none;fill-opacity:1;stroke:#000000;stroke-width:0.83233231;stroke-linecap:round;stroke-linejoin:round;stroke-miterlimit:10;stroke-dasharray:none;stroke-opacity:1"
         d="m 125.94641,92.899372 0,3.90857 0.30066,0.75157 0.75164,0.451 1.0523,0 0.75164,-0.451 0.30066,-0.30057" />
      <path
         inkscape:connector-curvature="0"
         id="path5242"
         style="fill:none;fill-opacity:1;stroke:#000000;stroke-width:0.83233231;stroke-linecap:round;stroke-linejoin:round;stroke-miterlimit:10;stroke-dasharray:none;stroke-opacity:1"
         d="m 170.05696,123.41669 9.01969,0 0,1.50329 -9.01969,0 0,-1.50329 z" />
      <path
         inkscape:connector-curvature="0"
         id="path5244"
         style="fill:none;fill-opacity:1;stroke:#000000;stroke-width:0.83233231;stroke-linecap:round;stroke-linejoin:round;stroke-miterlimit:10;stroke-dasharray:none;stroke-opacity:1"
         d="m 170.05696,108.38353 9.01969,0 0,1.50328 -9.01969,0 0,-1.50328 z" />
      <path
         inkscape:connector-curvature="0"
         id="path5246"
         style="fill:none;fill-opacity:1;stroke:#000000;stroke-width:0.83233231;stroke-linecap:round;stroke-linejoin:round;stroke-miterlimit:10;stroke-dasharray:none;stroke-opacity:1"
         d="m 170.05696,93.350372 9.01969,0 0,1.50329 -9.01969,0 0,-1.50329 z" />
      <path
         inkscape:connector-curvature="0"
         id="path5248"
         style="fill:none;fill-opacity:1;stroke:#000000;stroke-width:0.83233231;stroke-linecap:round;stroke-linejoin:round;stroke-miterlimit:10;stroke-dasharray:none;stroke-opacity:1"
         d="m 170.05696,86.585362 15.03281,0 0,45.099448 -15.03281,0 0,-45.099448 z" />
      <path
         inkscape:connector-curvature="0"
         id="path5250"
         style="fill:none;fill-opacity:1;stroke:#000000;stroke-width:0.83233231;stroke-linecap:round;stroke-linejoin:round;stroke-miterlimit:10;stroke-dasharray:none;stroke-opacity:1"
         d="m 170.05696,94.101942 -22.54926,0" />
      <path
         inkscape:connector-curvature="0"
         id="path5254"
         style="fill:none;fill-opacity:1;stroke:#000000;stroke-width:0.83233231;stroke-linecap:round;stroke-linejoin:round;stroke-miterlimit:10;stroke-dasharray:none;stroke-opacity:1"
         d="m 160.88692,92.297932 -4.20918,0" />
      <path
         inkscape:connector-curvature="0"
         id="path5256"
         style="fill:none;fill-opacity:1;stroke:#000000;stroke-width:0.83233231;stroke-linecap:round;stroke-linejoin:round;stroke-miterlimit:10;stroke-dasharray:none;stroke-opacity:1"
         d="m 158.78234,92.297932 0,-7.51657 -0.75165,1.05243 -0.75165,0.75157 -0.6013,0.30072" />
      <path
         inkscape:connector-curvature="0"
         id="path5258"
         style="fill:none;fill-opacity:1;stroke:#000000;stroke-width:0.83233231;stroke-linecap:round;stroke-linejoin:round;stroke-miterlimit:10;stroke-dasharray:none;stroke-opacity:1"
         d="m 170.05696,109.13509 -22.54926,0" />
      <path
         inkscape:connector-curvature="0"
         id="path5262"
         style="fill:none;fill-opacity:1;stroke:#000000;stroke-width:0.83233231;stroke-linecap:round;stroke-linejoin:round;stroke-miterlimit:10;stroke-dasharray:none;stroke-opacity:1"
         d="m 156.67774,100.41595 0.30065,-0.30072 0.75163,-0.300718 1.80394,0 0.60133,0.300718 0.45099,0.30072 0.30064,0.75156 0,0.75172 -0.30064,1.05229 -4.35953,4.35957 4.66017,0" />
      <path
         inkscape:connector-curvature="0"
         id="path5264"
         style="fill:none;fill-opacity:1;stroke:#000000;stroke-width:0.83233231;stroke-linecap:round;stroke-linejoin:round;stroke-miterlimit:10;stroke-dasharray:none;stroke-opacity:1"
         d="m 170.05696,124.16826 -22.54926,0" />
      <path
         inkscape:connector-curvature="0"
         id="path5268"
         style="fill:none;fill-opacity:1;stroke:#000000;stroke-width:0.83233231;stroke-linecap:round;stroke-linejoin:round;stroke-miterlimit:10;stroke-dasharray:none;stroke-opacity:1"
         d="m 156.22675,114.84766 4.66017,0 -2.55557,2.85629 1.20261,0 0.60133,0.30072 0.45099,0.30072 0.30064,0.75156 0,1.80402 -0.30064,0.75172 -0.45099,0.30057 -0.60133,0.451 -2.25492,0 -0.6013,-0.451 -0.45099,-0.30057" />
      <path
         inkscape:connector-curvature="0"
         id="path5272"
         style="fill:none;fill-opacity:1;stroke:#000000;stroke-width:0.83233231;stroke-linecap:round;stroke-linejoin:round;stroke-miterlimit:10;stroke-dasharray:none;stroke-opacity:1"
         d="m 172.01121,82.977352 0,-7.51657 2.85622,0 0.75166,0.30071 0.30066,0.30072 0.30064,0.75157 0,1.05244 -0.30064,0.75156 -0.30066,0.30072 -0.75166,0.451 -2.85622,0" />
      <path
         inkscape:connector-curvature="0"
         id="path5274"
         style="fill:none;fill-opacity:1;stroke:#000000;stroke-width:0.83233231;stroke-linecap:round;stroke-linejoin:round;stroke-miterlimit:10;stroke-dasharray:none;stroke-opacity:1"
         d="m 178.77597,75.460782 4.66019,0 -2.55559,2.85644 1.20263,0 0.60131,0.30056 0.45099,0.30072 0.30066,0.75157 0,1.804 -0.30066,0.75172 -0.45099,0.30056 -0.60131,0.451 -2.25493,0 -0.60131,-0.451 -0.45099,-0.30056" />
      <path
         inkscape:connector-curvature="0"
         id="path5276"
         style="fill:none;fill-opacity:1;stroke:#000000;stroke-width:0.83233231;stroke-linecap:round;stroke-linejoin:round;stroke-miterlimit:10;stroke-dasharray:none;stroke-opacity:1"
         d="m 139.99129,131.68481 0,7.5166 7.51641,0 -7.51641,7.5166 -7.5164,-7.5166 7.5164,0" />
      <path
         inkscape:connector-curvature="0"
         id="path5280"
         style="fill:none;fill-opacity:1;stroke:#000000;stroke-width:0.83233231;stroke-linecap:round;stroke-linejoin:round;stroke-miterlimit:10;stroke-dasharray:none;stroke-opacity:1"
         d="m 112.49105,135.89411 -0.75163,-0.3007 -1.05231,0 -1.0523,0.3007 -0.75164,0.7517 -0.30064,0.7516 -0.30066,1.353 0,1.0523 0.30066,1.5034 0.30064,0.6013 0.75164,0.7516 1.0523,0.451 0.75164,0 1.0523,-0.451 0.30066,-0.3006 0,-2.5557 -1.35296,0" />
      <path
         inkscape:connector-curvature="0"
         id="path5282"
         style="fill:none;fill-opacity:1;stroke:#000000;stroke-width:0.83233231;stroke-linecap:round;stroke-linejoin:round;stroke-miterlimit:10;stroke-dasharray:none;stroke-opacity:1"
         d="m 116.09892,143.11001 0,-7.5166 4.20921,7.5166 0,-7.5166" />
      <path
         inkscape:connector-curvature="0"
         id="path5284"
         style="fill:none;fill-opacity:1;stroke:#000000;stroke-width:0.83233231;stroke-linecap:round;stroke-linejoin:round;stroke-miterlimit:10;stroke-dasharray:none;stroke-opacity:1"
         d="m 123.916,143.11001 0,-7.5166 1.80394,0 1.0523,0.3007 0.75164,0.7517 0.30066,0.7516 0.30066,1.353 0,1.0523 -0.30066,1.5034 -0.30066,0.6013 -0.75164,0.7516 -1.0523,0.451 -1.80394,0" />
      <path
         inkscape:connector-curvature="0"
         id="path5290"
         style="fill:none;fill-opacity:1;stroke:#000000;stroke-width:0.83233231;stroke-linecap:round;stroke-linejoin:round;stroke-miterlimit:10;stroke-dasharray:none;stroke-opacity:1"
         d="m 250.49238,80.572072 6.01313,0" />
      <path
         inkscape:connector-curvature="0"
         id="path5292"
         style="fill:none;fill-opacity:1;stroke:#000000;stroke-width:0.83233231;stroke-linecap:round;stroke-linejoin:round;stroke-miterlimit:10;stroke-dasharray:none;stroke-opacity:1"
         d="m 253.49894,83.578792 0,-6.01329" />
      <path
         inkscape:connector-curvature="0"
         id="path5294"
         style="fill:none;fill-opacity:1;stroke:#000000;stroke-width:0.83233231;stroke-linecap:round;stroke-linejoin:round;stroke-miterlimit:10;stroke-dasharray:none;stroke-opacity:1"
         d="m 261.01537,88.088642 0,-16.53643" />
      <path
         inkscape:connector-curvature="0"
         id="path5296"
         style="fill:none;fill-opacity:1;stroke:#000000;stroke-width:0.83233231;stroke-linecap:round;stroke-linejoin:round;stroke-miterlimit:10;stroke-dasharray:none;stroke-opacity:1"
         d="m 261.01537,99.500692 0,17.205698" />
      <path
         inkscape:connector-curvature="0"
         id="path5300"
         style="fill:none;fill-opacity:1;stroke:#000000;stroke-width:0.83233231;stroke-linecap:round;stroke-linejoin:round;stroke-miterlimit:10;stroke-dasharray:none;stroke-opacity:1"
         d="m 270.78669,82.225792 -0.30065,0.30056 -1.05231,0.451 -0.75163,0 -1.0523,-0.451 -0.75164,-0.75156 -0.30066,-0.60129 -0.30065,-1.50343 0,-1.05229 0.30065,-1.353 0.30066,-0.75157 0.75164,-0.75172 1.0523,-0.30071 0.75163,0 1.05231,0.30071 0.30065,0.30072" />
      <path
         inkscape:connector-curvature="0"
         id="path5302"
         style="fill:none;fill-opacity:1;stroke:#000000;stroke-width:0.83233231;stroke-linecap:round;stroke-linejoin:round;stroke-miterlimit:10;stroke-dasharray:none;stroke-opacity:1"
         d="m 278.00245,82.977352 -4.20919,0" />
      <path
         inkscape:connector-curvature="0"
         id="path5304"
         style="fill:none;fill-opacity:1;stroke:#000000;stroke-width:0.83233231;stroke-linecap:round;stroke-linejoin:round;stroke-miterlimit:10;stroke-dasharray:none;stroke-opacity:1"
         d="m 275.89785,82.977352 0,-7.51657 -0.75164,1.05243 -0.75164,0.75157 -0.60131,0.30072" />
      <path
         inkscape:connector-curvature="0"
         id="path5306"
         style="fill:none;fill-opacity:1;stroke:#000000;stroke-width:0.83233231;stroke-linecap:round;stroke-linejoin:round;stroke-miterlimit:10;stroke-dasharray:none;stroke-opacity:1"
         d="m 282.66263,75.460782 0.75165,0 0.75162,0.30071 0.30068,0.30072 0.45098,0.75157 0.30066,1.50344 0,1.80385 -0.30066,1.353 -0.45098,0.75172 -0.30068,0.30056 -0.75162,0.451 -0.75165,0 -0.60131,-0.451 -0.45098,-0.30056 -0.30066,-0.75172 -0.30066,-1.353 0,-1.80385 0.30066,-1.50344 0.30066,-0.75157 0.45098,-0.30072 0.60131,-0.30071" />
      <path
         inkscape:connector-curvature="0"
         id="path5310"
         style="fill:none;fill-opacity:1;stroke:#000000;stroke-width:0.83233231;stroke-linecap:round;stroke-linejoin:round;stroke-miterlimit:10;stroke-dasharray:none;stroke-opacity:1"
         d="m 269.7344,107.93252 0,5.11114" />
      <path
         inkscape:connector-curvature="0"
         id="path5312"
         style="fill:none;fill-opacity:1;stroke:#000000;stroke-width:0.83233231;stroke-linecap:round;stroke-linejoin:round;stroke-miterlimit:10;stroke-dasharray:none;stroke-opacity:1"
         d="m 267.93046,105.07608 -1.65361,5.41201 4.50984,0" />
      <path
         inkscape:connector-curvature="0"
         id="path5314"
         style="fill:none;fill-opacity:1;stroke:#000000;stroke-width:0.83233231;stroke-linecap:round;stroke-linejoin:round;stroke-miterlimit:10;stroke-dasharray:none;stroke-opacity:1"
         d="m 273.04161,105.52708 4.96084,0 -3.1569,7.51658" />
      <path
         inkscape:connector-curvature="0"
         id="path5316"
         style="fill:none;fill-opacity:1;stroke:#000000;stroke-width:0.83233231;stroke-linecap:round;stroke-linejoin:round;stroke-miterlimit:10;stroke-dasharray:none;stroke-opacity:1"
         d="m 284.1659,107.93252 0,5.11114" />
      <path
         inkscape:connector-curvature="0"
         id="path5318"
         style="fill:none;fill-opacity:1;stroke:#000000;stroke-width:0.83233231;stroke-linecap:round;stroke-linejoin:round;stroke-miterlimit:10;stroke-dasharray:none;stroke-opacity:1"
         d="m 281.00902,107.93252 0,3.90858 0.30066,0.75156 0.75164,0.451 1.0523,0 0.75164,-0.451 0.30064,-0.30056" />
      <path
         inkscape:connector-curvature="0"
         id="path5320"
         style="fill:none;fill-opacity:1;stroke:#000000;stroke-width:0.83233231;stroke-linecap:round;stroke-linejoin:round;stroke-miterlimit:10;stroke-dasharray:none;stroke-opacity:1"
         d="m 261.01537,124.16826 0,7.51655 7.5164,0 -7.5164,7.5166 -7.51643,-7.5166 7.51643,0" />
      <path
         inkscape:connector-curvature="0"
         id="path5324"
         style="fill:none;fill-opacity:1;stroke:#000000;stroke-width:0.83233231;stroke-linecap:round;stroke-linejoin:round;stroke-miterlimit:10;stroke-dasharray:none;stroke-opacity:1"
         d="m 255.30289,143.41071 -0.75165,-0.3007 -1.0523,0 -1.05228,0.3007 -0.75164,0.7517 -0.30067,0.7516 -0.30065,1.353 0,1.0523 0.30065,1.5034 0.30067,0.6013 0.75164,0.7516 1.05228,0.451 0.75166,0 1.05229,-0.451 0.30067,-0.3006 0,-2.5557 -1.35296,0" />
      <path
         inkscape:connector-curvature="0"
         id="path5326"
         style="fill:none;fill-opacity:1;stroke:#000000;stroke-width:0.83233231;stroke-linecap:round;stroke-linejoin:round;stroke-miterlimit:10;stroke-dasharray:none;stroke-opacity:1"
         d="m 258.91077,150.62661 0,-7.5166 4.20918,7.5166 0,-7.5166" />
      <path
         inkscape:connector-curvature="0"
         id="path5328"
         style="fill:none;fill-opacity:1;stroke:#000000;stroke-width:0.83233231;stroke-linecap:round;stroke-linejoin:round;stroke-miterlimit:10;stroke-dasharray:none;stroke-opacity:1"
         d="m 266.72783,150.62661 0,-7.5166 1.80394,0 1.0523,0.3007 0.75163,0.7517 0.30067,0.7516 0.30066,1.353 0,1.0523 -0.30066,1.5034 -0.30067,0.6013 -0.75163,0.7516 -1.0523,0.451 -1.80394,0" />
      <path
         inkscape:connector-curvature="0"
         id="path8594"
         style="fill:none;fill-opacity:1;stroke:#000000;stroke-width:0.83233231;stroke-linecap:round;stroke-linejoin:round;stroke-miterlimit:10;stroke-dasharray:none;stroke-opacity:1"
         d="m 261.01537,124.16826 0,-7.51659" />
      <path
         inkscape:connector-curvature="0"
         id="path8596"
         style="fill:none;fill-opacity:1;stroke:#000000;stroke-width:0.83233231;stroke-linecap:round;stroke-linejoin:round;stroke-miterlimit:10;stroke-dasharray:none;stroke-opacity:1"
         d="m 261.01537,64.035632 0,7.51658" />
      <path
         inkscape:connector-curvature="0"
         id="path8598"
         style="fill:none;fill-opacity:1;stroke:#000000;stroke-width:0.83233231;stroke-linecap:round;stroke-linejoin:round;stroke-miterlimit:10;stroke-dasharray:none;stroke-opacity:1"
         d="m 140.13293,64.035582 120.46553,0" />
      <path
         inkscape:connector-curvature="0"
         id="path8600"
         style="fill:none;fill-opacity:1;stroke:#000000;stroke-width:0.83233231;stroke-linecap:round;stroke-linejoin:round;stroke-miterlimit:10;stroke-dasharray:none;stroke-opacity:1"
         d="m 139.99129,94.101942 0,-30.06631" />
      <path
         inkscape:connector-curvature="0"
         id="path8602"
         style="fill:none;fill-opacity:1;stroke:#000000;stroke-width:0.83233231;stroke-linecap:round;stroke-linejoin:round;stroke-miterlimit:10;stroke-dasharray:none;stroke-opacity:1"
         d="m 147.5077,94.101942 -7.51641,0" />
      <path
         inkscape:connector-curvature="0"
         id="path8604"
         style="fill:none;fill-opacity:1;stroke:#000000;stroke-width:0.83233231;stroke-linecap:round;stroke-linejoin:round;stroke-miterlimit:10;stroke-dasharray:none;stroke-opacity:1"
         d="m 139.99129,124.16826 0,7.51655" />
      <path
         inkscape:connector-curvature="0"
         id="path8606"
         style="fill:none;fill-opacity:1;stroke:#000000;stroke-width:0.83233231;stroke-linecap:round;stroke-linejoin:round;stroke-miterlimit:10;stroke-dasharray:none;stroke-opacity:1"
         d="m 147.8433,124.16826 -7.70135,0" />
      <path
         inkscape:connector-curvature="0"
         id="path8608"
         style="fill:none;fill-opacity:1;stroke:#000000;stroke-width:0.83233231;stroke-linecap:round;stroke-linejoin:round;stroke-miterlimit:10;stroke-dasharray:none;stroke-opacity:1"
         d="m 98.737006,109.13509 0,-7.51658" />
      <path
         inkscape:connector-curvature="0"
         id="path8610"
         style="fill:none;fill-opacity:1;stroke:#000000;stroke-width:0.83233231;stroke-linecap:round;stroke-linejoin:round;stroke-miterlimit:10;stroke-dasharray:none;stroke-opacity:1"
         d="m 98.543066,109.13509 48.886474,0" />
      <path
         inkscape:connector-curvature="0"
         id="path8614"
         style="fill:none;fill-opacity:1;stroke:#000000;stroke-width:0.83233231;stroke-linecap:round;stroke-linejoin:round;stroke-miterlimit:10;stroke-dasharray:none;stroke-opacity:1"
         d="m 98.737006,49.002472 0,7.51658" />
      <path
         inkscape:connector-curvature="0"
         id="path8616"
         style="fill:none;fill-opacity:1;stroke:#000000;stroke-width:0.83233231;stroke-linecap:round;stroke-linejoin:round;stroke-miterlimit:10;stroke-dasharray:none;stroke-opacity:1"
         d="m 31.089286,101.61851 0,7.51658" />
      <path
         inkscape:connector-curvature="0"
         id="path8618"
         style="fill:#000000;fill-opacity:1;fill-rule:nonzero;stroke:#000000;stroke-width:1.38722062;stroke-linecap:round;stroke-linejoin:round;stroke-miterlimit:10;stroke-dasharray:none;stroke-opacity:1"
         d="m 28.082716,49.002472 c 0,-1.65957 1.34695,-3.00656 3.00657,-3.00656 1.65963,0 3.00657,1.34699 3.00657,3.00656 0,1.65974 -1.34694,3.00673 -3.00657,3.00673 -1.65962,0 -3.00657,-1.34699 -3.00657,-3.00673 z" />
      <path
         inkscape:connector-curvature="0"
         id="path8620"
         style="fill:none;fill-opacity:1;stroke:#000000;stroke-width:0.83233231;stroke-linecap:round;stroke-linejoin:round;stroke-miterlimit:10;stroke-dasharray:none;stroke-opacity:1"
         d="m 31.089286,56.519052 0,-7.51658" />
      <path
         inkscape:connector-curvature="0"
         id="path9086"
         style="fill:none;fill-opacity:1;stroke:#000000;stroke-width:0.83233231;stroke-linecap:round;stroke-linejoin:round;stroke-miterlimit:10;stroke-dasharray:none;stroke-opacity:1"
         d="m 98.125346,49.002462 -74.87202,0" />
      <path
         d="m 17.559743,76.513062 0,0 0,-3.00672 0,0 0,3.00672 z"
         style="fill:none;fill-opacity:1;stroke:#000000;stroke-width:0.83233231;stroke-linecap:round;stroke-linejoin:round;stroke-miterlimit:10;stroke-dasharray:none;stroke-opacity:1"
         id="path13220"
         inkscape:connector-curvature="0" />
      <path
         d="m 17.559743,76.513062 27.059093,0 0,0 -27.059093,0 z"
         style="fill:none;fill-opacity:1;stroke:#000000;stroke-width:0.83233231;stroke-linecap:round;stroke-linejoin:round;stroke-miterlimit:10;stroke-dasharray:none;stroke-opacity:1"
         id="path13222"
         inkscape:connector-curvature="0" />
      <path
         d="m 44.618836,82.526352 -27.059093,0 0,3.00657 27.059093,0 0,-3.00657 z"
         style="fill:#000000;fill-opacity:1;fill-rule:nonzero;stroke:#000000;stroke-width:0.83233231;stroke-linecap:round;stroke-linejoin:round;stroke-miterlimit:10;stroke-dasharray:none;stroke-opacity:1"
         id="path13224"
         inkscape:connector-curvature="0" />
      <path
         d="m 44.618836,73.506342 -27.059093,0 0,0 27.059093,0 z"
         style="fill:none;fill-opacity:1;stroke:#000000;stroke-width:0.83233231;stroke-linecap:round;stroke-linejoin:round;stroke-miterlimit:10;stroke-dasharray:none;stroke-opacity:1"
         id="path13226"
         inkscape:connector-curvature="0" />
      <path
         d="m 44.618836,73.506342 0,0 0,3.00672 0,0 0,-3.00672 z"
         style="fill:none;fill-opacity:1;stroke:#000000;stroke-width:0.83233231;stroke-linecap:round;stroke-linejoin:round;stroke-miterlimit:10;stroke-dasharray:none;stroke-opacity:1"
         id="path13228"
         inkscape:connector-curvature="0" />
      <path
         inkscape:connector-curvature="0"
         id="path13239"
         style="fill:none;fill-opacity:1;stroke:#000000;stroke-width:0.83233231;stroke-linecap:round;stroke-linejoin:round;stroke-miterlimit:10;stroke-dasharray:none;stroke-opacity:1"
         d="m 85.207456,76.513062 0,0 0,-3.00672 0,0 0,3.00672 z" />
      <path
         inkscape:connector-curvature="0"
         id="path13241"
         style="fill:none;fill-opacity:1;stroke:#000000;stroke-width:0.83233231;stroke-linecap:round;stroke-linejoin:round;stroke-miterlimit:10;stroke-dasharray:none;stroke-opacity:1"
         d="m 85.207456,76.513062 27.059084,0 0,0 -27.059084,0 z" />
      <path
         inkscape:connector-curvature="0"
         id="path13243"
         style="fill:#000000;fill-opacity:1;fill-rule:nonzero;stroke:#000000;stroke-width:0.83233231;stroke-linecap:round;stroke-linejoin:round;stroke-miterlimit:10;stroke-dasharray:none;stroke-opacity:1"
         d="m 112.26654,82.526352 -27.059084,0 0,3.00657 27.059084,0 0,-3.00657 z" />
      <path
         inkscape:connector-curvature="0"
         id="path13245"
         style="fill:none;fill-opacity:1;stroke:#000000;stroke-width:0.83233231;stroke-linecap:round;stroke-linejoin:round;stroke-miterlimit:10;stroke-dasharray:none;stroke-opacity:1"
         d="m 112.26654,73.506342 -27.059084,0 0,0 27.059084,0 z" />
      <path
         inkscape:connector-curvature="0"
         id="path13247"
         style="fill:none;fill-opacity:1;stroke:#000000;stroke-width:0.83233231;stroke-linecap:round;stroke-linejoin:round;stroke-miterlimit:10;stroke-dasharray:none;stroke-opacity:1"
         d="m 112.26654,73.506342 0,0 0,3.00672 0,0 0,-3.00672 z" />
      <path
         inkscape:connector-curvature="0"
         id="path13261"
         style="fill:none;fill-opacity:1;stroke:#000000;stroke-width:0.83233231;stroke-linecap:round;stroke-linejoin:round;stroke-miterlimit:10;stroke-dasharray:none;stroke-opacity:1"
         d="m 247.48582,91.546212 0,0 0,-3.00672 0,0 0,3.00672 z" />
      <path
         inkscape:connector-curvature="0"
         id="path13263"
         style="fill:none;fill-opacity:1;stroke:#000000;stroke-width:0.83233231;stroke-linecap:round;stroke-linejoin:round;stroke-miterlimit:10;stroke-dasharray:none;stroke-opacity:1"
         d="m 247.48582,91.546212 27.05909,0 0,0 -27.05909,0 z" />
      <path
         inkscape:connector-curvature="0"
         id="path13265"
         style="fill:#000000;fill-opacity:1;fill-rule:nonzero;stroke:#000000;stroke-width:0.83233231;stroke-linecap:round;stroke-linejoin:round;stroke-miterlimit:10;stroke-dasharray:none;stroke-opacity:1"
         d="m 274.54491,97.559512 -27.05909,0 0,3.006568 27.05909,0 0,-3.006568 z" />
      <path
         inkscape:connector-curvature="0"
         id="path13267"
         style="fill:none;fill-opacity:1;stroke:#000000;stroke-width:0.83233231;stroke-linecap:round;stroke-linejoin:round;stroke-miterlimit:10;stroke-dasharray:none;stroke-opacity:1"
         d="m 274.54491,88.539492 -27.05909,0 0,0 27.05909,0 z" />
      <path
         inkscape:connector-curvature="0"
         id="path13269"
         style="fill:none;fill-opacity:1;stroke:#000000;stroke-width:0.83233231;stroke-linecap:round;stroke-linejoin:round;stroke-miterlimit:10;stroke-dasharray:none;stroke-opacity:1"
         d="m 274.54491,88.539492 0,0 0,3.00672 0,0 0,-3.00672 z" />
      <g
         transform="matrix(1.5413561,0,0,1.5413561,-151.52042,-1420.7952)"
         style="stroke:#000000;stroke-opacity:1"
         id="g8990">
        <path
           inkscape:connector-curvature="0"
           id="path8974"
           style="fill:none;fill-opacity:1;stroke:#000000;stroke-width:0.53858268;stroke-linecap:round;stroke-linejoin:round;stroke-miterlimit:10;stroke-dasharray:none;stroke-opacity:1"
           d="m 240.44125,982.83397 -26.94167,0" />
        <path
           inkscape:connector-curvature="0"
           id="path8978"
           style="fill:none;fill-opacity:1;stroke:#000000;stroke-width:0.54000002;stroke-linecap:round;stroke-linejoin:round;stroke-miterlimit:10;stroke-dasharray:none;stroke-opacity:1"
           d="m 240.5319,1002.3405 -27.03418,0" />
        <path
           inkscape:connector-curvature="0"
           id="path8982"
           style="fill:none;fill-opacity:1;stroke:#000000;stroke-width:0.54000002;stroke-linecap:round;stroke-linejoin:round;stroke-miterlimit:10;stroke-dasharray:none;stroke-opacity:1"
           d="m 232.34409,992.58708 -18.84011,0" />
        <path
           d="m 242.95931,989.72276 -10.37222,2.77923"
           style="fill:none;fill-opacity:1;stroke:#000000;stroke-width:1.0629921;stroke-linecap:round;stroke-linejoin:round;stroke-miterlimit:10;stroke-dasharray:none;stroke-opacity:1"
           id="path8984"
           inkscape:connector-curvature="0" />
        <path
           d="m 240.58039,998.93547 0,3.40123"
           style="fill:none;fill-opacity:1;stroke:#000000;stroke-width:0.54000002;stroke-linecap:round;stroke-linejoin:round;stroke-miterlimit:10;stroke-dasharray:none;stroke-opacity:1"
           id="path8986"
           inkscape:connector-curvature="0" />
        <path
           inkscape:connector-curvature="0"
           id="path8988"
           style="fill:none;fill-opacity:1;stroke:#000000;stroke-width:0.54000002;stroke-linecap:round;stroke-linejoin:round;stroke-miterlimit:10;stroke-dasharray:none;stroke-opacity:1"
           d="m 240.58039,982.8378 0,3.40123" />
      </g>
      <rect
         y="89.248856"
         x="192.80751"
         height="39.772491"
         width="37.157692"
         id="rect8998"
         style="opacity:1;fill:none;fill-opacity:1;stroke:#000000;stroke-width:0.81922466;stroke-linecap:butt;stroke-linejoin:round;stroke-miterlimit:10;stroke-dasharray:3.27689865, 1.63844933;stroke-dashoffset:0;stroke-opacity:1" />
    </g>
  </g>
</svg>
